<?xml version="1.0" encoding="utf-8"?>
<!-- Generator: Adobe Illustrator 28.3.0, SVG Export Plug-In . SVG Version: 6.00 Build 0)  -->
<svg version="1.1" id="Sample_Gallery" xmlns="http://www.w3.org/2000/svg" xmlns:xlink="http://www.w3.org/1999/xlink" x="0px"
	 y="0px" viewBox="0 0 1700 500" style="enable-background:new 0 0 1700 500;" xml:space="preserve">
<style type="text/css">
	.st0{fill:#FFFFFF;}
</style>
<g>
	<path class="st0" d="M187.1,229.1c-0.7-1.6-4,2.9-5.3,3.1c-1.1,2.5-5.3,2-6.5,4.5c-20.7,12.9-58.6,17.8-86.7,9.6
		c-7.1-2.2-13.4-6.2-20.3-6.5c-3.8-3.8-9.1-5.8-13.8-8.5c-2-2.9-4.2-5.1-6.5-7.6c-2.9-4.7-3.8-11.1-3.1-19.2
		c3.6-4.5,9.1-6.7,14.9-8.7c2.7,1.8,9.1,0.2,11.8,2.2c3.8,0.2,8.2,0,8.5,4.2c-0.9,5.1-5.1,2.7-8.5,2.2c-3.6-0.7-6.7-2.7-9.8-2.2
		c-3.6-0.9-1.8,4-4.2,4.2c-1.1,1.8-3.3,2.2-3.1,5.3c1.6,10.5,11.4,12.9,18.1,18.3c6.5,0,9.8,3.1,15.2,4.2c2.2,1.6,4.7,1.3,7.4,2.2
		c0.2,0,0.4,0.9,1.1,0.9c4,1.1,11.8,2,18.3,2.2c1.6,0,3.6,0.2,5.3,0c4-0.7,10.5,0,18.1,0c4.9-0.9,8.2-3.3,14-3.1
		c8.9-4.9,18.5-9.4,26.7-15.2c2.7-2.9,4.9-6.2,8.5-8.5c0-3.6,1.6-5.6,3.1-7.6c1.8-8.5,0.9-16.9-0.9-24.5c-2.9-3.3-4.5-7.6-7.6-10.7
		c-1.6-4.5-6.2-6-7.6-10.7c-5.8-2.5-10-6.2-13.8-10.7c-2.7,0.2-5.1,0.2-6.5-1.1c-2-2.5-5.1-4-6.5-7.4h-7.4c-2.7-3.6-8.2-4-10.7-7.6
		c-4,1.3-6-1.1-8.7-2.2c-4.9-1.8-8.5-3.3-13.8-5.3c-2.2-0.7-5.1-1.1-7.6-2c-0.7-0.2-2.5-2-3.1-2.2c-2.9-1.1-7.6-1.8-11.8-3.1
		c-0.4-0.2-2.7-2-3.1-2.2c-2.7-0.7-3.8,0-6.5-1.1c-1.1-0.2-2.5-1.3-4.2-2c-0.9-5.1,0.9-7.6,2-10.7c12-1.6,21-6.5,33.2-7.6
		c8.2-5.1,24.1-3.1,33.2-7.4c10-0.7,19.8-1.6,27.9-4.5c5.3,1.1,11.1-0.9,17.2-0.9c2.2-0.2,3.8,0.9,6.2,0.9c4.7,0.2,9.6-1.1,14-0.9
		c2.5,0,6.2,0.4,9.6,0.9c2.7,0.4,6.5,0.7,8.5,1.1c0.7,0.2,1.8,2,2.2,2.2c0.9,0.2,2.5-0.4,3.1,0c2.2,1.1,4.9,6.2,7.6,8.5
		c-0.4,3.3,2,3.8,1.1,7.6c0,2.5-2,3.1-1.1,6.5c-2.7-0.2-2.9,2.9-4.2,4.2c-0.9,0.7-2.5,0.4-3.3,1.1c-0.7,0.4-1.1,1.3-2,2
		c-3.1,2.5-6.2,4.5-9.6,6.5c-1.6,1.6-7.6,2-7.6-1.1c-0.7-3.6,1.8-3.8,4.2-4.2c1.6-1.3,1.6-4.2,4.2-4.2c0.9-2.2,2.9-2.9,5.3-3.3
		c-0.4-3.3,2.9-2.7,3.3-5.3c-2.5-8.5-13.8-8.2-20.3-12.7c-2.5-0.7-1.6,2-3.3,2c-0.2-1.3-2.7-0.9-4.2-0.9c-13.8-2-32.1,1.1-47,3.1
		c-12.3,1.8-23.8,4-35.4,5.3c-7.6,2.5-14.9,5.1-23.4,6.5c0,2.7,3.6,1.6,5.3,3.1c0.9,0.9,6.7,2.5,9.6,3.3c6.5,4.2,14,6.2,21.4,9.6
		c6.7,2.9,13.6,6.9,21.4,8.5c1.1,3.3,5.1,4,7.6,5.3c0.4,0.2,0.7,2,0.9,2.2c0.9,0.4,2.5-0.4,3.3,0c0.4,0.2,0.7,2,1.1,2
		c4.5,2.2,10.7,6.5,14.9,10.7c3.3,2,5.1,5.8,9.6,6.5c0,6.9,7.1,6.5,6.5,14c0.4,1.1,1.3,2,3.1,2c0,1.8,0.9,2.9,2.2,3.3
		c0.2,7.6,2.9,15.6,2,23.4c-0.4,4.5-2.5,9.6-4.2,14C196.7,221.5,192,224.6,187.1,229.1z"/>
	<path class="st0" d="M358.3,203.4c-3.8,2-8,7.6-11.6,9.4c-3.8,1.8-2.9,3.3-6.7,5.3s-6.7,4.9-10.5,6.9c-2,0.9-4.5,0.9-6.5,2
		c-2.2,1.3-2.7,2.5-5.3,2.2c-3.8,3.8-10.7,2.7-13.8,7.1c-7.8,0.9-13.1,0.4-20.5,1.8c0-2.2-4.5-0.4-6.2-1.1c-0.2-2.7-4.2-1.6-4.5-4.2
		c-2-0.2-0.2-4.7-3.1-4.2c-3.1-0.4-4,2.7-6.5,3.1c-2.9,0.9-7.1,3.1-10.7,5.3c-1.6,1.1-7.4,2.2-10.7,4.5c-1.6,0.9-10.3,3.3-13.8,3.1
		c0.4,0-3.1-2.2-5.3-1.1c-5.1-4.7-7.8-11.8-5.3-21.4c2.7-2.9,4.2-7.1,5.3-11.8c3.3-2.9,5.3-7.4,8.5-10.7
		c5.3-6.7,12.5-11.8,18.3-18.1c3.8-2.5,7.4-4.9,9.6-8.7c5.6-0.2,7.1-4.2,10.7-6.2c4.2-2,9.6-2.7,11.8-6.5c9.8-1.3,16-6.2,25.6-7.6
		c7.8,1.6,11.1,9.4,8.5,18.3c-1.8,2-3.1,4.5-6.2,5.3c0.4,2.2-2.2,1.6-2.2,3.1c-0.2,1.6-2.7,0.9-4.2,1.1c-4-5.6,2.9-8,3.1-12.9
		c-5.3-2.7-9.1,2.2-16,1.1c-3.1,2.2-7.4,2.7-10.7,4.2c-3.1,1.8-4.9,4.7-8.5,5.3c-6,3.6-10,9.4-17.2,11.8c-2.9,4.2-6.2,8-9.6,11.8
		c-2.7,0.9-3.3,3.8-5.3,5.3c-2,1.6-2.2,4.9-5.3,5.3c-1.8,6.9-5.8,11.1-6.5,19.2c6.5,3.8,12.3-1.8,18.3-2c0-2,1.8-1.3,3.1-2.2
		c1.3-0.7,2-1.3,3.1-2c2-1.1,6.7-1.1,6.5-4.5c2.7,0.2,5.1,0.2,6.5-1.1c2.5-0.2,2-3.6,5.3-3.1c0.9-4.5,3.8-6.9,4.2-11.8
		c2.2-2.5,5.3-4,5.3-8.5c8.7-2.9,8.9-14,21.4-12.9c2.7,1.1,2.7,4.7,4.2,6.5c0.7,6.7-5.1,6.9-5.3,12.9c-3.3,1.8-5.3,5.3-7.4,8.5
		c-2.9,1.1-4.5,3.3-6.5,5.3c-1.6,1.6-5.8,2.2-4.2,6.5c-1.1,3.8,4.7,1.1,5.3,3.1c1.8-0.9,4.5-0.4,6.5-0.9c3.6-1.1,6.2-0.2,9.6-2
		c3.3-1.6,7.4-2.7,10.7-4.2c6.5-2.9,12.7-5.6,19.2-8.5c2.7-3.1,5.8-4.7,8.9-6.5c4.5-2.5,8.2-5.6,13.4-8.5
		C354.9,195.9,357.6,203.7,358.3,203.4z"/>
	<path class="st0" d="M509.4,223.7c-10.9,2.7-12,7.6-22.7,10.5c-9.4,2-22.1,8.5-32.1,3.1c-5.8-5.3-2-15.8-1.1-23.4
		c2.2-0.4,1.1-4,3.3-4.5c0.2-1.8-1.1-5.3,2-4.2c-0.7-4.9,1.8-6.9,3.3-9.6c1.6-2.5,2.2-6.2,4.2-8.5c1.6-2.9,3.8-4.9,4.2-8.7
		c-6.2,0.2-8.5,5.3-12.9,8.7c-8.9,6.7-15.2,16-23.4,24.5c-2.7,2.7-5.3,5.3-8.7,7.6c-3.8,6.9-8.9,12.3-13.8,18.1
		c-6-1.3-6.5,2.9-11.8,2.2c-0.7-3.1-3.8-5.3,0-7.6c0.4-3.1,0.7-6.5,3.3-7.4c2.5-5.1,5.8-9.1,7.4-15.2c4-3.3,5.1-10,8.7-13.8
		c0.9-6.2,3.1-11.1,4.2-17.2c-4.7-2.5-9.6,3.1-12.9,5.3c-4.2,2-7.6,5.1-10.7,8.7c-4.7,2-7.6,5.8-10.7,9.6c-5.3,0.9-5.8,6.9-11.8,7.4
		c-4.5,5.6-8.9,11.1-14.9,15.2c0.2,2-2.2,3.1-3.1,4.2c-1.1,1.3-1.1,4-3.3,4.2c-0.9,4-4.7,5.3-6.2,8.5c-6-0.9-10.9,3.1-14-0.9
		c0.2-1.1,0-2.2,0-3.3c0.2-2,0.7-2.7,2.2-4.2c5.1-5.3,6.9-16.3,11.8-23.6c1.8-5.6,5.3-9.6,7.4-14.9c1.3-2.5,2.7-4.7,2.9-6.9
		c1.3-6.2,3.1-9.1,5.8-19.6c2-4.9-4.2-1.3-3.3-5.3c-0.9-5.1,4.7-4,4.5-8.5c3.8-0.4,3.1-5.3,5.3-7.6c0.2-1.1,2-0.7,2-2h2.2
		c10.5,3.6,5.1,21.8-1.1,27.9c0,2.5-1.1,5.1-1.1,7.6c-1.8,3.6-1.3,3.6-2.5,7.6c0.4,3.1-2.9,6.2-2.9,11.1c0.7,2.7,2.9-2,5.3-0.9
		c0.9-2,4-1.8,4.2-4.5c4.5-1.1,7.4-4,9.6-7.4c4-1.8,7.4-4.2,10.7-6.5c3.1-2.7,7.8-3.8,9.8-7.6c9.6-1.3,13.6-8.5,23.4-9.6
		c7.8,6.9,2.2,20.1,1.1,30.1c0.2,2.5,2.9-1.3,4.2-1.1c0.7-1.6,1.8-2.7,3.3-3.3c1.3-3.1,4.7-4.5,7.4-6.2c3.8-5.3,10.9-6.9,14-12.9
		c8.2-2.5,12.5-8.9,20.3-11.8c8.2,4.5,4.7,17.8,0,23.6c-2.9,11.4-10.7,17.8-14,28.8c-2,4.9-4.7,9.6-4.2,17.2
		c8.2,3.8,13.8-3.8,21.4-4.2c1.1-0.7,1.1-2.5,3.3-2.2c1.3-1.3,3.6-1.3,5.3-2c3.8-1.8,5.1-1.8,9.6-4.5c5.6-3.1,4-6.2,10.5-8.2
		c6-4.9,23.2-25.2,20.1-2.2C528.1,207,516.8,221,509.4,223.7z"/>
	<path class="st0" d="M679.5,175.4c0.4,0-13.2,14.7-13.4,14.7c-3.1,1.3-40.1,18.7-40.6,20.1c-3.8,0.7-6.9,2.7-9.6,5.3
		c-5.8,2.9-13.4,7.1-19.8,11.4c-2.2,0.4-4.2,1.3-6.2,2.2c-0.4,2.7-6,0.9-6.7,3.3h-7.6c-4,0-8,0-11.8-1.1
		c-5.3-5.3-8.2-12.7-11.8-19.2c-5.3,5.8-21.8,31.6-26.7,33.2c0.9,3.3-2.2,4.2-2,7.4c-6,3.3-21.4,30.1-26.7,37.4
		c-1.3,0.4-2.5,1.8-2.2,3.3c-2.9,4.5-6.9,8-9.6,12.7c-6,10-29.4,49.3-41.9,49.3h-0.9c-3.6-4-2-14-2.2-19.2c2-5.8,4.7-11.1,5.6-17.2
		c2.5-1.6,0.4-6.2,3.1-7.6c0-2.5,2.2-4,2.2-6.5l-0.2-2c2.9-0.7,2.5-4.9,5.3-5.3c-0.4-3.1,7.1-17.8,9.8-19.2
		c-2.7-6.9,29.9-43.9,33-52.6c2-1.1,19.2-18.5,19.4-19.2c3.8-4.7,29.4-28.5,34.1-29c2-6,41.5-29,49.3-29c7.1,0,10.5,4.9,14.9,9.8
		c-0.7,1.3,0.2,3.1,1.1,4.2v0.9c0,2.7-1.1,5.1-1.1,7.8l1.1,2v2.2c0,8-1.6,15.8-3.1,23.4c0.4,0.4,1.1,0.7,1.6,0.7
		c4.9,0,49.7-21.6,56.4-25L679.5,175.4z M544.6,191.8c-2.2,1.8-3.3,4.2-6.5,4.2c-1.3,5.1-6.9,6.5-9.6,10.7c-4.7,2.5-6.2,8-10.7,10.7
		c-2.9,0.2-2,4.5-4.2,5.3c-0.7,2.9-4.5,2.9-4.5,6.5c-3.8,0.4-6.5,9.4-10.7,10.7c-0.2,0.4-15.6,22.7-16.9,24.5
		c-1.6,5.6-7.1,7.8-7.6,14c-4,3.6-4.5,9.1-8.5,12.7v5.3c-3.3,2.2-4,6.7-6.5,9.6c0.4,5.1-1.8,8.2-3.3,12.9c1.1,3.3-1.3,3.1-2,5.3
		c-0.4,0.2-1.1,0.4-1.1,0.9c0,1.6,1.6,2.7,1.6,4c0,0.7-0.2,1.1-0.4,1.6c3.8-0.9,5.1-4.5,6.5-7.6c3.1-2,5.3-4.9,6.2-8.5
		c4.7-3.1,5.6-9.6,9.8-12.9v-2c1.6-2.9,4.5-6.9,6.2-9.8l2.2-0.9c0.9-1.3-0.7-4.7,2.2-4.5c4-6.7,9.6-12.5,13.8-19.2
		c-0.2-2,1.3-3.6,3.1-4.2c1.3-2,0.9-4.5,2.2-6.5h2.2v-2.2c8.2-9.8,14.3-24.5,24.5-32.1c0.2-4.2,4.5-5.8,5.3-9.6
		c2.7-3.8,10.9-15.2,10.9-19.6c0-0.7-0.2-0.9-1.3-0.7C546.8,191.4,545.7,191.8,544.6,191.8z M594.8,159.8c-0.2,1.3-1.6,2-2,3.1
		c-5.3-0.7-6.7,4.5-11.8,4.2c-2,3.3-4.9,6.5-8.2,8.7c-0.9,5.6-7.4,16.3-10.5,21.4c-1.8,2.2-3.3,4.2-3.8,7.4
		c5.1,3.3,6.7,12.3,14.5,12.3c5.8,0,12.3-3.8,18.9-3.8c-0.2-2.5,3.8-3.6,5.6-4.2c6.5-8.2,9.8-23.2,9.8-33.4c0-4.7-0.7-9.4-2.7-13.6
		c-2.9-1.1-5.6-2-8.7-2H594.8z"/>
	<path class="st0" d="M729.8,208.3c0-0.4-10,11.6-13.4,13.2c-2.9,1.3-5.1,5.8-8,5.8c-2.7,1.8-10.3,8.5-11.1,8.5
		c-1.3,0-5.3,4.2-8,4.2c-0.4,0-1.1-0.2-1.3-0.2c-2,0-10.3,3.8-13.4,4.5c-6,0-6.9,1.1-9.6,1.1c-6.2-0.2-12.3-2.5-17.2-5.3
		c-1.6-4-3.3-7.6-3.3-12.9c0-10.7,6.2-23.2,12.9-34.1c1.3-2.2,2.5-5.8,4.2-8.7c8.7-14.3,18.3-29,27.9-42.8c1.1-2,2.7-3.8,3.3-6.5
		c2.7-1.3,9.1-8.7,10.7-14.9c12.3-10,13.6-18.3,33-36.3c6-5.6,18.3-9.6,18.3-12.9c2.7,0,3.6,1.3,6,1.3c0.4,0,0.9,0,1.6-0.2
		c0.9,3.1,2.2,5.8,2.2,9.8c0,5.8-3.3,18.9-6.7,25.6c-1.1,2-3.1,2.7-3.1,5.3c-7.6,20.5-18.3,34.8-33.2,50.1
		c-4.5,4.7-10.3,8.7-12.7,14.9c-5.8,2.7-14.7,8.2-16,11.8c-2,0-2,0.7-2.2,2.2c-4.9,1.3-8.9,4-12.9,6.5c-2.7,3.6-8.5,4.2-9.6,9.6
		c-4.7,0.7-5.8,4.9-10.7,5.3c-0.9,3.6-2.2,8-2.2,12.5c0,7.1,4.9,7.8,9.4,7.8c17.6,0,33.7-11.8,42.8-18.1c10-6.9,18.3-12.9,24.1-19.2
		C732.1,196.5,729.8,209.2,729.8,208.3z M744.1,90.2c-4.9,6-11.8,11.8-16,17.2c-2.5,3.1-10.7,10.5-10.7,11.6c0,3.6-3.1,3.6-3.1,7.6
		c-7.8,3.6-9.8,11.1-9.8,12.9c-7.4,4-10,13.4-11.6,14.9c-0.9,0.7-2.9-0.2-3.3,1.1c-1.3,9.4-5.3,9.1-5.3,11.4c0,1.1-2.2,0.7-2.2,1.8
		c0,0.9-3.3,7.1-4.9,7.1c0,0-2.7,6.7-2.7,5.8c0,2.2-6.2,11.4-8,12.9c8,0,25.6-19.6,32.3-23.2c0.4,0,1.1,0.2,1.3,0.2
		c2.5,0,10.5-10.3,13.2-12.9c8.7-8.7,16-18.7,24.5-27.9c1.6-6,4.9-11.4,7.6-17.2c1.3,0.7,1.1-0.7,1.1-1.6c0-2.9,4.5-11.6,7.4-15.4
		c-0.2-0.7-0.2-1.3-0.2-2c0-3.3,2-5.6,2-7.8c0-2-1.8-2.7-3.3-2.7C748.8,84.2,746.3,88,744.1,90.2z"/>
	<path class="st0" d="M818.1,214.8c-3.3,5.3-33,23-49.7,24.1c-14,0.9-27-2.5-35.4-8.2c-5.1-0.7-6.9-6.7-6.5-10.7
		c-0.9-4.5-2.2-10-0.9-15.2c0,0,0.9-0.4,0.9-1.1c0.7-2.2,4.2-12.9,6.9-14c1.1-3.1,2.2-6.5,5.3-7.6c2.5-6,8.5-8.7,11.6-13.8
		c6-2.7,11.8-5.3,16-9.8c7.8,0.7,10.9-3.3,18.3-3.1c3.1,2.5,3.3,5.3,3.1,9.6c0,1.8-0.4,1.3-0.9,2.2c-0.9,1.6-0.4,5.3-2.2,7.4
		c0,8.7-8.2,18.3-8.9,26.1c-3.1,1.6-5.3,6.2-7.4,8.7s-5.1,3.3-6.5,6.2c-5.1,1.8-7.8,5.8-12.9,7.6c3.3,2.9,8.7,4.2,11.8,5.1h2.2
		c11.8-0.7,29.4-8,38.8-14.9c2-1.6,6.5-3.8,8.5-4.7c2-0.7,6.2-2.9,8.5-2.9C818.8,206.1,818.8,213.7,818.1,214.8z M767.5,170.2
		c-6.5,3.6-10,10.3-16,12.9c-4,7.4-14,20.1-14.3,31.4c3.3,0.2,7.4-1.6,8.7-2.2c2.7-1.6,4.2-2.5,6.5-4.2c6.7-5.3,15.4-20.7,19.4-27.2
		c2-3.1,4.5-6.5,4.5-10.7c-0.2-0.7-0.2-2-1.1-2C772.2,170.2,769.3,169.3,767.5,170.2z"/>
	<path class="st0" d="M1061.2,188.3c0,2-18.9,8.5-19.4,9.6c-0.2,2.5-3.3,2.2-4.2,4.2c-0.7-0.2-1.3-0.2-1.8-0.2
		c-6.2,0-9.6,7.8-16.5,7.8c-1.6,3.3-5.1,4.7-8.5,6.2c-3.1,2.9-12.9,10.7-12.9,13.2c0,2.2-3.6,8.7-5.3,9.4c-1.6,3.1-1.3,7.8-4.2,9.6
		c-1.8,2.9-1.3,7.8-5.3,8.7c0,4.9-2,6-2,10.7c-2.7,1.1-4.2,3.6-5.3,6.5c0.9,2-2.7,6.7-4.5,7.4c-0.9,3.1-1.8,6-3.1,8.5
		c-0.4,1.3-4.5,5.1-4.2,7.6c0,2.2-2.2,2.9-3.3,4.2c-1.1,1.8-1.1,3.8-2,5.3c-1.3,2.5-4.5,4.7-4.5,8.2c0,0.4,0,0.9,0.2,1.3
		c-12.9,12.9-18.9,36.8-30.1,43c-2,9.4-9.8,17.2-13.8,23.4c-0.7,0.9-0.4,2.5-1.1,3.3c-3.8,4.9-11.4,10.5-14.9,15.8
		c-6.5,2.5-11.8,8.7-19.2,8.7c-2.5,0-4.5,0.7-6.5,1.1c-0.7-1.3-2.2-1.3-3.3-2.2c-0.2-0.2-0.7-2-1.1-2.2c-1.1-0.4-6-4.5-7.4-11.6
		c0.7-9.1,0.9-13.2,1.1-23.6c-0.2-0.2-0.2-0.7-0.2-0.9c0-2,2.2-1.1,2.2-5.1c0-2.5,4.5-5.8,4.5-11.4c0-0.4-0.2-1.1-0.2-1.8
		c6.7-9.1,13.6-31,20.5-32.1c1.8-0.7-0.2-5.1,2-5.3c-0.2,0.2,6.9-8,7.6-8c0-6.5,8-11.6,11.8-17.8c3.3-0.9,4.7-4.5,6.2-7.4
		c8-2.5,13.6-13.8,23.6-20.3c2-1.3,1.8-3.3,2.5-3.3c0.2,0,0.9,0.2,1.3,0.2c0.2,0,3.3-4.2,4.7-5.6c4.9-4.2,11.1-7.4,15.2-12.7
		c12.9-5.6,20.5-16.5,33-22.5c3.1-7.6,8.2-13.2,10.7-21.4c0,0,0-0.9-0.4-0.9c-2.2,0-5.6,4.5-8,6.2c-2.7,2-8.7,2.5-8.7,6.2
		c0,0.4,0,0.9,0.2,1.3c-2.2,0-3.3,0-3.3,2c-5.3,0.7-7.6,4.7-11.8,6.5c-13.4,5.3-30.5,16.3-44.6,16.3c-6.9,0-13.4-0.4-18.5-2.5
		c-2.9-3.1-3.8-8.2-6.5-11.6c0-19.4,8.5-30.3,12.9-45c4.2-2.2,5.1-7.8,8.5-10.7c4-2.5,4.5-8.5,9.8-9.6c0-3.1,2.5-4,4.2-5.3
		c4-5.6,9.8-9.6,13.8-14.9c12-5.6,20.7-14.5,33.2-19.4c5.1-3.3,11.4-5.8,17.2-8.5c5.8-2.7,13.1-4,18.1-7.6c0.9,0.2,1.8,0.2,2.5,0.2
		c6,0,8-3.3,14.7-3.3c3.3-1.3,6.7-2.7,9.6-4.2c0.9,0.2,1.6,0.2,2.2,0.2c4.2,0,6.9-1.3,11.4-1.3c6.7,0,16.5,7.4,16.5,14.3
		c0,6.9-5.3,14-5.3,14.9c0,1.3-2.9,4.5-8.7,9.4c-0.9,3.1-2.7,5.6-3.1,9.6c-3.6,1.1-4,5.1-6.5,7.4c-0.7,4-4.9,4.5-5.3,8.7
		c-6.2,2.5-6.9,10.7-13.8,12.7c-2,7.4-7.8,10.9-9.6,18.3c-4,0.7-2.7,6.7-6.5,7.6c-3.1,1.3-1.8,7.4-4.2,9.6
		c11.1-3.3,25.9-10.9,32.1-17.2c3.6,0,5.8-1.3,7.4-3.1c2.2-1.1,4.9-1.8,6.5-3.3C1058.8,180.7,1061.2,187.4,1061.2,188.3z
		 M978.8,236.4c-3.6,2-5.6,5.8-9.6,7.4c-5.6,3.6-10.9,6.7-16,11.8c-1.8,1.6-3.6,3.8-5.3,5.3c-1.6,1.3-4.2,1.6-5.3,2.2
		c0.7,0-12.3,12.3-14.9,14.9c-0.7,0.7-1.6,0.4-2.2,1.1c-5.8,5.1-9.4,12-16,16c-1.6,2-0.7,4.2-4.2,4.2c0,6.2-5.3,6.7-5.3,10.9
		c0,2.2-3.6,0.9-3.6,3.1c0,0.2,0.2,0.7,0.2,0.9c-4.7,3.8-17.2,29.9-19.6,29.9c-3.1,0-12.5,33.4-12.5,41c0,4,2.2,7.6,2.2,10
		c0,2.7,2.9,2.5,3.1,4.7c16.9,0,29.2-16.9,30.1-21.4c2.9-0.9,5.3-4.7,5.3-5.6v-1.6c0-1.8,6.2-6,6.5-7.8c0-1.3,6.7-12.3,9.6-16
		c4.5-7.4,10-13.6,13.8-21.4c13.8-22.3,25.2-43.7,37.4-66.4c2.7-2.9,3.1-8.2,5.3-11.8c1.6-4.2,6-7.1,6-13.4c0-0.2-0.2-0.2-0.7-0.4
		C982.3,236.2,979.9,235.8,978.8,236.4z M1052.6,101.6c-5.3,3.8-16.3,2.2-20.3,7.4c-0.9-0.4-1.8-0.7-2.9-0.7
		c-3.3,0-6.7,2.5-10.3,2.5c-0.9,0-2,0-2.9-0.7c-1.6,1.8-2.7,3.8-5.3,4.2c-9.6,2-14.9,8-24.5,9.8c-2.9,2.5-4.2,5.3-9.8,5.3
		c-0.7,3.8-10.3,7.6-9.8,7.6c-0.4,0-1.1-0.4-1.8-1.3c0,6.5-6.7,3.8-7.6,8.7c-6.2,5.1-11.8,10-17.2,14.9c-2.9,2.5-3.3,7.4-8.5,7.6
		c-0.9,1.3,0.4,3.8-1.1,4.2c-1.8,1.3-4.5,6.7-5.3,6.7c-0.2,0-0.7,0-1.1-0.2c0,4.5-1.8,6.2-4.2,8.5c-0.7,3.8-0.4,8-4.2,8.5
		c0.4,0.9,0.7,2,0.7,2.9c0,3.6-4,6.2-4,9.1c0,3.3-1.1,5.6-1.1,9.1c0,4.7,4.5,8.2,9.8,8.2c7.1,0,13.2-2.7,17.2-2.7
		c4,0,14.3-7.4,18.1-7.4c9.8-2,27.2-16.7,34.3-19.4c1.8-2.7,3.8-5.3,8.5-5.3c1.1-5.1,6.2-6.7,9.6-9.6c3.8-3.1,6.9-6.7,10.7-9.6
		c2.2-6,4.9-11.6,8.7-16c2-10.5,9.6-15.4,11.8-25.6c2.9-0.4,2.5-4.7,5.3-5.3c-0.2-0.4-0.2-0.9-0.2-1.3c0-6,12-12.9,14-18.1
		c-0.4,0.2-0.9,0.2-1.3,0.2C1055.2,103.8,1055.5,101.6,1052.6,101.6z"/>
	<path class="st0" d="M1194.1,203.4c-3.8,2-8,7.6-11.6,9.4c-3.8,1.8-2.9,3.3-6.7,5.3s-6.7,4.9-10.5,6.9c-2,0.9-4.5,0.9-6.5,2
		c-2.2,1.3-2.7,2.5-5.3,2.2c-3.8,3.8-10.7,2.7-13.8,7.1c-7.8,0.9-13.2,0.4-20.5,1.8c0-2.2-4.5-0.4-6.2-1.1c-0.2-2.7-4.2-1.6-4.5-4.2
		c-2-0.2-0.2-4.7-3.1-4.2c-3.1-0.4-4,2.7-6.5,3.1c-2.9,0.9-7.1,3.1-10.7,5.3c-1.6,1.1-7.4,2.2-10.7,4.5c-1.6,0.9-10.3,3.3-13.8,3.1
		c0.4,0-3.1-2.2-5.3-1.1c-5.1-4.7-7.8-11.8-5.3-21.4c2.7-2.9,4.2-7.1,5.3-11.8c3.3-2.9,5.3-7.4,8.5-10.7
		c5.3-6.7,12.5-11.8,18.3-18.1c3.8-2.5,7.4-4.9,9.6-8.7c5.6-0.2,7.1-4.2,10.7-6.2c4.2-2,9.6-2.7,11.8-6.5c9.8-1.3,16-6.2,25.6-7.6
		c7.8,1.6,11.1,9.4,8.5,18.3c-1.8,2-3.1,4.5-6.2,5.3c0.4,2.2-2.2,1.6-2.2,3.1c-0.2,1.6-2.7,0.9-4.2,1.1c-4-5.6,2.9-8,3.1-12.9
		c-5.3-2.7-9.1,2.2-16,1.1c-3.1,2.2-7.4,2.7-10.7,4.2c-3.1,1.8-4.9,4.7-8.5,5.3c-6,3.6-10,9.4-17.2,11.8c-2.9,4.2-6.2,8-9.6,11.8
		c-2.7,0.9-3.3,3.8-5.3,5.3c-2,1.6-2.2,4.9-5.3,5.3c-1.8,6.9-5.8,11.1-6.5,19.2c6.5,3.8,12.3-1.8,18.3-2c0-2,1.8-1.3,3.1-2.2
		c1.3-0.7,2-1.3,3.1-2c2-1.1,6.7-1.1,6.5-4.5c2.7,0.2,5.1,0.2,6.5-1.1c2.5-0.2,2-3.6,5.3-3.1c0.9-4.5,3.8-6.9,4.2-11.8
		c2.2-2.5,5.3-4,5.3-8.5c8.7-2.9,8.9-14,21.4-12.9c2.7,1.1,2.7,4.7,4.2,6.5c0.7,6.7-5.1,6.9-5.3,12.9c-3.3,1.8-5.3,5.3-7.4,8.5
		c-2.9,1.1-4.5,3.3-6.5,5.3c-1.6,1.6-5.8,2.2-4.2,6.5c-1.1,3.8,4.7,1.1,5.3,3.1c1.8-0.9,4.5-0.4,6.5-0.9c3.6-1.1,6.2-0.2,9.6-2
		c3.3-1.6,7.4-2.7,10.7-4.2c6.5-2.9,12.7-5.6,19.2-8.5c2.7-3.1,5.8-4.7,8.9-6.5c4.5-2.5,8.2-5.6,13.4-8.5
		C1190.7,195.9,1193.4,203.7,1194.1,203.4z"/>
	<path class="st0" d="M1263.8,208.3c0-0.4-10,11.6-13.4,13.2c-2.9,1.3-5.1,5.8-8,5.8c-2.7,1.8-10.3,8.5-11.1,8.5
		c-1.3,0-5.3,4.2-8,4.2c-0.4,0-1.1-0.2-1.3-0.2c-2,0-10.3,3.8-13.4,4.5c-6,0-6.9,1.1-9.6,1.1c-6.2-0.2-12.3-2.5-17.2-5.3
		c-1.6-4-3.3-7.6-3.3-12.9c0-10.7,6.2-23.2,12.9-34.1c1.3-2.2,2.5-5.8,4.2-8.7c8.7-14.3,18.3-29,27.9-42.8c1.1-2,2.7-3.8,3.3-6.5
		c2.7-1.3,9.1-8.7,10.7-14.9c12.3-10,13.6-18.3,33-36.3c6-5.6,18.3-9.6,18.3-12.9c2.7,0,3.6,1.3,6,1.3c0.4,0,0.9,0,1.6-0.2
		c0.9,3.1,2.2,5.8,2.2,9.8c0,5.8-3.3,18.9-6.7,25.6c-1.1,2-3.1,2.7-3.1,5.3c-7.6,20.5-18.3,34.8-33.2,50.1
		c-4.5,4.7-10.3,8.7-12.7,14.9c-5.8,2.7-14.7,8.2-16,11.8c-2,0-2,0.7-2.2,2.2c-4.9,1.3-8.9,4-12.9,6.5c-2.7,3.6-8.5,4.2-9.6,9.6
		c-4.7,0.7-5.8,4.9-10.7,5.3c-0.9,3.6-2.2,8-2.2,12.5c0,7.1,4.9,7.8,9.4,7.8c17.6,0,33.7-11.8,42.8-18.1c10-6.9,18.3-12.9,24.1-19.2
		C1266.1,196.5,1263.8,209.2,1263.8,208.3z M1278.1,90.2c-4.9,6-11.8,11.8-16,17.2c-2.5,3.1-10.7,10.5-10.7,11.6
		c0,3.6-3.1,3.6-3.1,7.6c-7.8,3.6-9.8,11.1-9.8,12.9c-7.4,4-10,13.4-11.6,14.9c-0.9,0.7-2.9-0.2-3.3,1.1c-1.3,9.4-5.3,9.1-5.3,11.4
		c0,1.1-2.2,0.7-2.2,1.8c0,0.9-3.3,7.1-4.9,7.1c0,0-2.7,6.7-2.7,5.8c0,2.2-6.2,11.4-8,12.9c8,0,25.6-19.6,32.3-23.2
		c0.4,0,1.1,0.2,1.3,0.2c2.5,0,10.5-10.3,13.1-12.9c8.7-8.7,16-18.7,24.5-27.9c1.6-6,4.9-11.4,7.6-17.2c1.3,0.7,1.1-0.7,1.1-1.6
		c0-2.9,4.5-11.6,7.4-15.4c-0.2-0.7-0.2-1.3-0.2-2c0-3.3,2-5.6,2-7.8c0-2-1.8-2.7-3.3-2.7C1282.8,84.2,1280.3,88,1278.1,90.2z"/>
	<path class="st0" d="M1341.9,208.3c0-0.4-10,11.6-13.4,13.2c-2.9,1.3-5.1,5.8-8,5.8c-2.7,1.8-10.3,8.5-11.1,8.5
		c-1.3,0-5.3,4.2-8,4.2c-0.4,0-1.1-0.2-1.3-0.2c-2,0-10.3,3.8-13.4,4.5c-6,0-6.9,1.1-9.6,1.1c-6.2-0.2-12.3-2.5-17.2-5.3
		c-1.6-4-3.3-7.6-3.3-12.9c0-10.7,6.2-23.2,12.9-34.1c1.3-2.2,2.5-5.8,4.2-8.7c8.7-14.3,18.3-29,27.9-42.8c1.1-2,2.7-3.8,3.3-6.5
		c2.7-1.3,9.1-8.7,10.7-14.9c12.3-10,13.6-18.3,33-36.3c6-5.6,18.3-9.6,18.3-12.9c2.7,0,3.6,1.3,6,1.3c0.4,0,0.9,0,1.6-0.2
		c0.9,3.1,2.2,5.8,2.2,9.8c0,5.8-3.3,18.9-6.7,25.6c-1.1,2-3.1,2.7-3.1,5.3c-7.6,20.5-18.3,34.8-33.2,50.1
		c-4.5,4.7-10.3,8.7-12.7,14.9c-5.8,2.7-14.7,8.2-16,11.8c-2,0-2,0.7-2.2,2.2c-4.9,1.3-8.9,4-12.9,6.5c-2.7,3.6-8.5,4.2-9.6,9.6
		c-4.7,0.7-5.8,4.9-10.7,5.3c-0.9,3.6-2.2,8-2.2,12.5c0,7.1,4.9,7.8,9.4,7.8c17.6,0,33.7-11.8,42.8-18.1c10-6.9,18.3-12.9,24.1-19.2
		C1344.1,196.5,1341.9,209.2,1341.9,208.3z M1356.1,90.2c-4.9,6-11.8,11.8-16,17.2c-2.5,3.1-10.7,10.5-10.7,11.6
		c0,3.6-3.1,3.6-3.1,7.6c-7.8,3.6-9.8,11.1-9.8,12.9c-7.4,4-10,13.4-11.6,14.9c-0.9,0.7-2.9-0.2-3.3,1.1c-1.3,9.4-5.3,9.1-5.3,11.4
		c0,1.1-2.2,0.7-2.2,1.8c0,0.9-3.3,7.1-4.9,7.1c0,0-2.7,6.7-2.7,5.8c0,2.2-6.2,11.4-8,12.9c8,0,25.6-19.6,32.3-23.2
		c0.4,0,1.1,0.2,1.3,0.2c2.5,0,10.5-10.3,13.1-12.9c8.7-8.7,16-18.7,24.5-27.9c1.6-6,4.9-11.4,7.6-17.2c1.3,0.7,1.1-0.7,1.1-1.6
		c0-2.9,4.5-11.6,7.4-15.4c-0.2-0.7-0.2-1.3-0.2-2c0-3.3,2-5.6,2-7.8c0-2-1.8-2.7-3.3-2.7C1360.8,84.2,1358.3,88,1356.1,90.2z"/>
	<path class="st0" d="M1430.1,214.8c-3.3,5.3-33,23-49.7,24.1c-14,0.9-27-2.5-35.4-8.2c-5.1-0.7-6.9-6.7-6.5-10.7
		c-0.9-4.5-2.2-10-0.9-15.2c0,0,0.9-0.4,0.9-1.1c0.7-2.2,4.2-12.9,6.9-14c1.1-3.1,2.2-6.5,5.3-7.6c2.5-6,8.5-8.7,11.6-13.8
		c6-2.7,11.8-5.3,16-9.8c7.8,0.7,10.9-3.3,18.3-3.1c3.1,2.5,3.3,5.3,3.1,9.6c0,1.8-0.4,1.3-0.9,2.2c-0.9,1.6-0.4,5.3-2.2,7.4
		c0,8.7-8.2,18.3-8.9,26.1c-3.1,1.6-5.3,6.2-7.4,8.7c-2,2.5-5.1,3.3-6.5,6.2c-5.1,1.8-7.8,5.8-12.9,7.6c3.3,2.9,8.7,4.2,11.8,5.1
		h2.2c11.8-0.7,29.4-8,38.8-14.9c2-1.6,6.5-3.8,8.5-4.7c2-0.7,6.2-2.9,8.5-2.9C1430.8,206.1,1430.8,213.7,1430.1,214.8z
		 M1379.5,170.2c-6.5,3.6-10,10.3-16,12.9c-4,7.4-14,20.1-14.3,31.4c3.3,0.2,7.4-1.6,8.7-2.2c2.7-1.6,4.2-2.5,6.5-4.2
		c6.7-5.3,15.4-20.7,19.4-27.2c2-3.1,4.5-6.5,4.5-10.7c-0.2-0.7-0.2-2-1.1-2C1384.2,170.2,1381.3,169.3,1379.5,170.2z"/>
	<path class="st0" d="M1523.3,200.3c0-0.2,2.9,8.5,2.9,8.5s-7.8,8.2-8,7.8c-11.6,7.4-22.5,16.9-37.4,20.3
		c-7.1,0.7-15.2-0.4-20.3-1.1c-2.2-0.2-2.9,0-5.3-1.1c-0.4-0.2,0-0.9-1.1-1.1c-2.9,0-4.5-4-6.5-6.5c-0.4-4.9,1.6-7.6,2.2-11.6
		c6-7.1,9.4-14.9,16-21.4c-0.4-4.7-1.3-11.1-3.3-14c-6.5,1.6-25,28.1-31.2,29.9c0,0-8-5.8-7.8-5.6c3.3-2.9,9.4-10.7,12.3-12.9
		c2.9-3.3,13.8-18.3,17.8-20.3c0.2-2.5,7.4-6.9,9.1-8.5c1.1-1.3,0.2-5.6,5.1-4c5.1,1.3,4.5,8.2,5.3,14c1.8,2.7,2.5,6.7,4.2,9.6
		c-0.9,5.1,3.3,7.4,3.3,11.8c-2,0-1.6,3.1-2.2,4.2c-0.9,1.3-2.5,2.2-3.1,3.1c-2.5,6.2-6.2,8.7-9.6,14c-1.1,3.1-5.3,3.1-4.2,8.5
		c4.2,2.5,10.9,2.9,18.1,2.2c12.5-1.3,23.8-11.4,32.3-17.6C1515.3,205.7,1523.3,200.5,1523.3,200.3z"/>
	<path class="st0" d="M1511.7,215.5c1.6-1.1,4-8.9,5.6-10.3c1.3-1.1,7.1-8.7,6.9-11.1c1.3-0.4,2.5-1.3,3.3-2.2
		c0.4-0.4,0.7-1.8,0.9-2c0.4-0.4,1.8,0.2,2.2,0c1.8-1.8,3.8-4,4.2-6.5c2.2,0.4,3.3-1.8,4.2-2.2s2.5-3.1,3.3-3.6c0.4-0.2,0.7-2,1.1-2
		c1.8-0.9,4.2-3.3,9.6-2.2c1.6,2,2.9,4.2,4.2,6.5c-3.1,8.7-11.4,12-16,19.2c-2.7,3.1-8.5,10.9-11.1,14c-1.8,4-6.7,4.9-6.5,10.7
		c2.2,2,6.9,0.7,8.5-1.1c8.7-2.5,16.9-5.1,23.6-9.6c2-0.2,4.7-1.6,6.5-3.3c0.9-0.9,2.2-1.3,3.1-2c0.9-0.9,2.2-1.3,3.1-2.2
		c1.6-1.6,6-3.6,8.7-5.3c1.1-0.7,2-1.3,3.1-2.2c5.6-4,10.7-11.4,16-16.9c1.3-3.3,3.6-5.8,6.5-7.6c2.7-1.8,2.2-6.2,7.6-5.3
		c4-0.7,2.7,4.5,5.3,5.3c-2.9,11.1-11.4,16.5-17.2,24.5c-7.6,6.5-10.7,17.4-18.3,23.6c-0.7,4.9-1.8,9.6-6.5,10.7
		c0.9,4-1.8,4.7-0.9,8.5c-4.7,2.2-5.6,8-7.6,12.9c-1.1,2.2-2.2,4.2-3.1,6.5c0.2,3.6-4.9,1.6-3.3,6.5c2.9,3.1,6.9-1.6,9.6-2.2
		c3.1-1.6,7.1-3.8,10.7-4.7c14.3-5.6,28.1-13.4,43.9-17.6c4.7-1.3,10.7-1.1,14.9-4.2c8.5,1.3,11.8-4.2,17.2,0c0.9,7.1-4,8.7-9.6,9.6
		c-8,0.9-15.6,3.3-22.5,5.3c-3.8,0.9-10.5,2.7-14.9,5.3c-0.7,2-6-0.2-6.5,2c-8.9,3.8-17.8,9.1-26.7,12.7
		c-8.7,3.8-16.7,8.7-24.5,12.9c-3.3,3.3-3.8,9.8-7.6,12.9c-1.3,5.3-3.8,9.6-6.5,13.8c-1.6,5.1-4.7,8.7-6.2,13.8
		c-4.5,2-4.5,8.5-7.6,11.8c-4.7,8.9-9.8,17.4-14.9,25.6c-0.9,1.8-1.6,3.8-3.3,5.3c0,0.2-0.9,1.1-0.9,1.1c-1.1,1.6-0.9,6-4.5,5.3
		c0,6.2-6.5,6.2-6.2,12.9c-2.9,1.1-4,3.8-7.6,4.2c-0.7,2.5-0.9,5.3-2.2,7.6c-5.6,4.2-8.9,10.9-16,13.8c-1.1,2-2.7,3.8-3.1,6.5
		c-6,0.4-8,4.9-11.8,7.4c-7.6,1.6-16.7,4.7-23.4,1.1c-2.9-6.9-4.9-14.3-4.5-24.5c1.1-5.6,4-8.9,4.5-14.9c5.3-6.2,7.4-15.6,12.7-21.4
		c0.7-5.1,4.7-6.9,6.5-10.7c1.6-3.8,4-6.9,7.6-8.7c0.9-2.9,2.5-5.3,3.1-8.5c6.9-1.8,7.6-9.6,12.9-12.9c2.5-2.9,4.9-5.1,7.4-8.5
		c3.1-4.2,9.6-7.4,12.9-12.9c6.9-3.3,12.5-8.5,19.2-12.7c2.2-1.6,4.2-3.1,6.5-4.5c0.9-0.4,2.5-1.6,3.1-2c1.1-0.7,3.1-0.4,4.5-1.1
		c0.9-0.7,1.1-2.7,2-3.1c1.3-0.9,2.9-0.4,4.2-1.1c4.7-2.5,8.9-4.5,12.9-7.6c5.1-10.9,10.3-21.8,14.9-33.2c0.4-2.7,3.3-3.1,3.3-6.2
		c3.1-0.2,1.3-5.1,3.1-6.5c2.7-0.7,2.5-4,3.1-6.5c-3.8-0.9-5.8,2.9-8.5,4.2c-2.5,1.3-5.8,2-8.5,3.3c-0.7,0.2,0,0.9-1.1,0.9
		c-0.9,0.2-5.3,2.5-7.6,3.3c-2.7,0.9-5.8,1.8-8.5,3.1c-2.2-0.4-2.9,0.7-4.2,1.1c-7.8,0-16.5,0.7-21.4-2.2
		C1505.4,227.7,1510.1,221.5,1511.7,215.5z M1530.2,292.1c-3.1,2.2-7.1,3.6-9.8,6.5c-6.5,4-13.8,7.6-19.2,12.7
		c-9.4,6.9-17.8,14.9-25.6,23.6c-3.6,1.8-4.9,5.8-7.6,8.5c-0.7,2.2-2.9,2.9-4.2,4.2c-1.3,1.6-2,3.8-4.2,4.5
		c-3.1,7.4-8,13.6-11.8,20.3c-4,6.9-7.8,14-10.7,22.5c-1.3,8-3.3,16.5,1.1,22.3c8.5,0.9,11.4-4.2,18.1-5.3c2.2-6,9.4-7.1,11.8-12.7
		c3.8-0.7,4.2-5.1,5.3-6.5c1.8-2.2,4.7-4.2,6.5-6.5c3.6-4.5,7.1-9.4,9.6-14.9c4.2-2.2,5.1-6.9,7.6-10.7c2.2-3.6,5.1-6.9,7.4-10.7
		c2.5-3.8,4.2-7.8,6.5-11.8c2.2-3.8,5.8-8,6.5-12.7c4.5-3.8,5.1-11.4,9.6-15.2c2.2-6.2,5.1-12,8.7-16.9c-0.2-0.9-0.2-2.2-1.1-2.2
		C1532.9,291.3,1532.4,292.6,1530.2,292.1z"/>
</g>
</svg>
